<svg xmlns="http://www.w3.org/2000/svg" xmlns:xlink="http://www.w3.org/1999/xlink" width="83.659" height="37.283" viewBox="0 0 83.659 37.283"><defs><style>.a{fill:url(#a);}.b{fill:#fff;}</style><linearGradient id="a" x1="0.5" y1="1" x2="0.5" gradientUnits="objectBoundingBox"><stop offset="0" stop-color="#0887ff"/><stop offset="1" stop-color="#00c7fa"/></linearGradient></defs><path class="a" d="M367.039,157.052l.815-6.875h-4.976l-.815,6.875h-6.875l-.59,4.976h6.875l-.815,6.875h4.976l.815-6.875h6.875l.59-4.976Z" transform="translate(-290.255 -140.899)"/><path class="b" d="M180.353,122.2h5.293l-4.311,36.362h-5.293Zm-6.015.875A3.493,3.493,0,0,0,172.211,122a22.052,22.052,0,0,0-3.721-.253,23.977,23.977,0,0,0-3.85.253,4.733,4.733,0,0,0-2.429,1.082,5.132,5.132,0,0,0-1.406,2.347,22.842,22.842,0,0,0-.78,4.05l-.415,3.5a16.008,16.008,0,0,0-.13,2.647,3.935,3.935,0,0,0,.64,1.979,6.762,6.762,0,0,0,1.838,1.772q1.254.875,3.5,2.117.946.553,1.5.944a2.544,2.544,0,0,1,.8.851,2.214,2.214,0,0,1,.243,1.059,13.751,13.751,0,0,1-.111,1.519l-.649,5.477a5.266,5.266,0,0,1-.68,2.44,2.491,2.491,0,0,1-1.929.552,4.619,4.619,0,0,1-1.16-.115.973.973,0,0,1-.615-.437,1.76,1.76,0,0,1-.193-.9,13.709,13.709,0,0,1,.114-1.542l.857-7.226h-5.155l-.857,7.226a20.133,20.133,0,0,0-.158,4.051,3.9,3.9,0,0,0,.875,2.324,3.662,3.662,0,0,0,2.13,1.059,20.975,20.975,0,0,0,3.606.253,24.465,24.465,0,0,0,3.873-.253,4.854,4.854,0,0,0,2.45-1.059,4.993,4.993,0,0,0,1.4-2.324,22.892,22.892,0,0,0,.78-4.051l.693-5.846a18.819,18.819,0,0,0,.163-2.923,3.972,3.972,0,0,0-.635-2.025,6.683,6.683,0,0,0-1.861-1.772q-1.278-.874-3.523-2.117a15.308,15.308,0,0,1-1.484-.875,3.052,3.052,0,0,1-.787-.736,1.658,1.658,0,0,1-.293-.828,5.929,5.929,0,0,1,.044-1.151l.426-3.59a14.77,14.77,0,0,1,.255-1.565,2.046,2.046,0,0,1,.406-.9,1.385,1.385,0,0,1,.717-.414,5.221,5.221,0,0,1,1.233-.115,4.926,4.926,0,0,1,1.183.115,1.034,1.034,0,0,1,.641.414,1.658,1.658,0,0,1,.193.9,14.287,14.287,0,0,1-.116,1.565l-.535,4.511h5.155l.535-4.511a21.705,21.705,0,0,0,.181-4.05A4.021,4.021,0,0,0,174.339,123.078Zm39.75,8.791.556-4.69h5.063l.59-4.976H209.942L208.081,137.9l-.59,4.976-1.861,15.693h10.4l.612-5.16h-5.109l1.249-10.533h5.089l.584-4.976h-5.083l.218-1.839Zm-9.187-6.145a19.938,19.938,0,0,1-.162,3.89l-2.548,21.495a21.465,21.465,0,0,1-.763,3.912,4.711,4.711,0,0,1-1.418,2.255,5.073,5.073,0,0,1-2.447,1.036,23.95,23.95,0,0,1-3.85.253h-7.549l4.311-36.362h7.549a22.871,22.871,0,0,1,3.79.253,3.92,3.92,0,0,1,2.2,1.036A3.548,3.548,0,0,1,204.9,125.724Zm-5.424,2.463a1.9,1.9,0,0,0-.218-.875.905.905,0,0,0-.618-.414,5.808,5.808,0,0,0-1.163-.092h-2.255L192,154.009h2.255a4.951,4.951,0,0,0,1.187-.115,1.384,1.384,0,0,0,.716-.414,2.206,2.206,0,0,0,.426-.875,10.252,10.252,0,0,0,.27-1.5l2.548-21.495A8.957,8.957,0,0,0,199.478,128.187Z" transform="translate(-157.413 -121.743)"/></svg>