<svg width="258" height="89" viewBox="0 0 258 89" fill="none" xmlns="http://www.w3.org/2000/svg">
<path d="M252.19 7.57999C252.01 7.36999 251.84 7.15999 251.65 6.95999C248.07 2.95999 242.81 0.660004 237.21 0.660004H141.97L139.87 10.36L143.78 14.29L136.27 48.49L139.99 52.22H129.87C129.97 52.11 130.07 52 130.19 51.86C130.25 51.78 130.32 51.7 130.38 51.6C130.44 51.52 130.5 51.45 130.55 51.36C130.76 51.06 130.94 50.79 131.1 50.51L131.19 50.35C131.38 50 131.56 49.64 131.72 49.27C131.81 49.06 131.9 48.83 131.97 48.65L132 48.57C132.03 48.5 132.05 48.43 132.05 48.43C132.13 48.21 132.22 47.98 132.31 47.69L132.35 47.58C132.44 47.31 132.53 47.02 132.62 46.72L132.68 46.52C132.75 46.26 132.83 46 132.9 45.72L132.94 45.56C133.02 45.25 133.1 44.92 133.18 44.58L138.95 18.33L138.96 18.27C139.15 17.28 139.32 16.39 139.44 15.62C139.51 15.19 139.56 14.77 139.6 14.32L139.62 14.16C139.65 13.79 139.66 13.43 139.67 13.09C139.67 12.78 139.66 12.49 139.64 12.18L139.63 12.01C139.62 11.89 139.6 11.77 139.59 11.68C139.56 11.48 139.54 11.28 139.5 11.08C139.48 10.96 139.45 10.84 139.41 10.7C139.37 10.53 139.32 10.36 139.28 10.24C139.25 10.12 139.21 10.01 139.18 9.92999C139.11 9.73999 139.03 9.54999 138.95 9.39999C138.83 9.15999 138.69 8.91999 138.53 8.67999L138.36 8.42999C138.19 8.20999 138.01 8 137.82 7.81L133.07 3.04999L132.52 2.51001L132.49 2.54001C132.14 2.27001 131.76 2.03001 131.36 1.82001C130.36 1.32001 129.21 1.00999 127.82 0.859985C126.71 0.739985 125.37 0.679993 123.83 0.679993H101.84L101.39 2.73999L99.34 0.679993H38.11L37.45 3.69L36.27 2.51999L36.24 2.54999C35.89 2.26999 35.51 2.03001 35.1 1.82001C34.11 1.33001 32.95 1.00999 31.56 0.859985C30.44 0.739985 29.13 0.679993 27.56 0.679993H15.82L5.34997 48.51L10.37 53.55C7.11997 55.02 5.16997 57.55 4.13997 61.59C3.77997 62.97 3.06996 65.72 4.41996 68.25L2.25997 68.29L1.43997 71.37C0.809969 73.8 0.339965 76.92 2.27997 79.48C2.29997 79.51 2.31996 79.53 2.33996 79.56L2.29997 79.59L7.62996 84.94C9.95996 87.27 13.76 88.06 22.71 88.06C23.16 88.06 23.59 88.06 24.01 88.05L24.36 88.04C24.68 88.03 25 88.03 25.3 88.02L25.61 88.01C26 88 26.38 87.98 26.76 87.96L26.95 87.95C27.26 87.93 27.56 87.91 27.85 87.89L28.16 87.86C28.45 87.83 28.73 87.81 29 87.78L29.2 87.76C29.53 87.72 29.85 87.68 30.17 87.63L30.4 87.59C30.65 87.55 30.88 87.51 31.12 87.46L31.37 87.41C31.64 87.36 31.9 87.3 32.18 87.23L32.25 87.21C32.54 87.14 32.82 87.06 33.09 86.98L33.31 86.91C33.52 86.84 33.73 86.77 33.97 86.68L34.13 86.62C34.39 86.52 34.65 86.41 34.91 86.29L35.02 86.23C35.23 86.13 35.43 86.02 35.63 85.91C35.7 85.87 35.77 85.83 35.84 85.79C36.03 85.68 36.22 85.56 36.39 85.44L36.54 85.34C36.76 85.18 36.97 85.02 37.17 84.85C37.22 84.81 37.26 84.77 37.32 84.72C37.47 84.59 37.62 84.45 37.81 84.26L37.94 84.13C38.09 83.97 38.24 83.81 38.39 83.63L38.54 83.45C38.55 83.44 38.56 83.43 38.56 83.42L39.54 84.4C42.07 86.94 46.23 88.03 53.45 88.03C53.9 88.03 54.33 88.03 54.75 88.02L55.13 88.01C55.44 88 55.75 88 56.05 87.99L56.41 87.98C56.81 87.97 57.21 87.95 57.59 87.93H57.64C58.01 87.91 58.37 87.88 58.73 87.85L59.05 87.82C59.32 87.8 59.59 87.77 59.85 87.74L60.16 87.7C60.51 87.66 60.85 87.61 61.2 87.56L61.26 87.55C61.57 87.5 61.88 87.44 62.18 87.38L62.46 87.32C62.7 87.27 62.94 87.21 63.17 87.16L63.43 87.09C63.74 87.01 64.05 86.92 64.32 86.83C64.36 86.82 64.39 86.81 64.42 86.79C64.69 86.7 64.95 86.61 65.22 86.5L65.46 86.4C65.67 86.31 65.88 86.22 66.09 86.12L66.14 86.1C66.21 86.07 66.27 86.04 66.33 86.01C66.61 85.87 66.87 85.73 67.13 85.58C67.17 85.55 67.21 85.53 67.24 85.51C67.35 85.45 67.45 85.38 67.55 85.31L69.78 87.55H108.66L108.81 86.96C108.81 86.96 109.57 83.89 110.18 81.43L113.27 87.55H161.21L161.7 85.68C161.91 85.83 162.14 85.98 162.37 86.11L164.26 86.92L164.33 86.95C166.48 87.62 169.54 87.95 174.28 88.01H174.33C174.82 88.02 175.32 88.02 175.85 88.02C176.27 88.02 176.67 88.02 177.05 88.01H244.64L256.55 26.46C257.92 19.37 256.37 12.66 252.19 7.57999ZM255.02 26.2L243.36 86.49H177.03C176.16 86.5 175.21 86.5 174.34 86.49H174.29C169.75 86.44 166.83 86.14 164.83 85.52L163.1 84.78C162.64 84.51 162.23 84.2 161.87 83.83L160.86 82.81L160.02 86.03H114.23L109.7 77.06L109.19 79.06C108.73 80.88 107.81 84.59 107.45 86.02H70.43L67.72 83.3L67.01 83.83C66.82 83.97 66.62 84.09 66.42 84.21L66.34 84.26C66.11 84.39 65.88 84.52 65.64 84.64L65.44 84.74C65.26 84.83 65.07 84.91 64.89 84.98L64.66 85.07C64.43 85.16 64.19 85.25 63.92 85.34L63.86 85.36C63.61 85.44 63.33 85.52 63.06 85.59L62.81 85.65C62.59 85.7 62.37 85.75 62.15 85.8L61.88 85.86C61.61 85.91 61.32 85.97 61.02 86.02L60.96 86.03C60.65 86.08 60.32 86.12 59.99 86.16L59.69 86.19C59.44 86.22 59.19 86.24 58.93 86.27L58.62 86.3C58.28 86.33 57.93 86.35 57.57 86.37H57.52C57.16 86.39 56.78 86.41 56.39 86.42L56.04 86.43C55.75 86.44 55.45 86.45 55.14 86.45L54.76 86.46C54.35 86.47 53.93 86.47 53.49 86.47C46.73 86.47 42.9 85.52 40.68 83.3L39.05 81.67L38.35 81.06L37.72 82C37.61 82.16 37.49 82.32 37.38 82.47L37.24 82.64C37.12 82.78 37 82.92 36.88 83.04L36.77 83.16C36.62 83.31 36.49 83.43 36.35 83.55C36.3 83.59 36.27 83.62 36.23 83.65C36.06 83.79 35.88 83.93 35.71 84.05L35.57 84.14C35.43 84.24 35.27 84.34 35.1 84.44L34.92 84.54C34.75 84.63 34.58 84.72 34.39 84.82L34.29 84.87C34.08 84.97 33.85 85.06 33.63 85.15L33.48 85.21C33.26 85.29 33.08 85.35 32.89 85.41L32.68 85.48C32.44 85.55 32.18 85.63 31.93 85.69L31.86 85.71C31.6 85.77 31.36 85.83 31.11 85.87L30.87 85.92C30.65 85.96 30.42 86 30.19 86.04L29.97 86.07C29.68 86.11 29.37 86.15 29.06 86.19L28.87 86.21C28.61 86.24 28.34 86.26 28.07 86.29L27.77 86.32C27.49 86.34 27.2 86.36 26.9 86.38L26.71 86.39C26.35 86.41 25.98 86.43 25.6 86.44L25.29 86.45C24.99 86.46 24.68 86.47 24.37 86.47L24.02 86.48C23.61 86.49 23.19 86.49 22.75 86.49C14.28 86.49 10.75 85.82 8.76996 83.82L4.60997 79.65L4.01996 79.06C3.84996 78.89 3.68997 78.71 3.54997 78.52C2.00997 76.49 2.42997 73.83 2.96997 71.74L3.48996 69.8L7.62996 69.73L6.49997 68.47C6.36997 68.33 6.25997 68.18 6.14997 68.03C4.65997 65.92 5.34997 63.25 5.67997 61.96C6.69997 57.97 8.60997 55.75 12.05 54.54L13.21 54.13L7.02997 48L17.06 2.20999H27.52C29.03 2.20999 30.28 2.27 31.35 2.38C32.55 2.51 33.54 2.78 34.37 3.19C34.87 3.44 35.3 3.75 35.67 4.13L36.2 4.64999L38.32 6.78L39.32 2.20999H98.66L102.26 5.82999L103.05 2.20999H123.79C125.28 2.20999 126.56 2.27 127.61 2.38C128.81 2.51 129.8 2.78 130.63 3.19C131.13 3.44 131.57 3.76 131.94 4.13L132.45 4.64001L136.69 8.89001C136.83 9.03001 136.97 9.18999 137.08 9.32999L137.23 9.54001C137.35 9.71001 137.45 9.89001 137.54 10.07C137.6 10.19 137.66 10.32 137.72 10.47C137.74 10.52 137.76 10.58 137.79 10.68C137.83 10.8 137.87 10.93 137.9 11.07C137.93 11.19 137.95 11.28 137.97 11.37C138 11.53 138.03 11.69 138.05 11.89C138.06 11.97 138.08 12.05 138.08 12.11L138.09 12.27C138.11 12.54 138.12 12.8 138.12 13.06C138.12 13.36 138.1 13.69 138.08 14L138.06 14.16C138.02 14.59 137.98 14.97 137.92 15.36C137.8 16.12 137.64 16.99 137.45 17.96L131.68 44.24C131.61 44.56 131.53 44.87 131.45 45.18L131.41 45.34C131.34 45.6 131.27 45.86 131.2 46.1L131.14 46.3C131.06 46.58 130.98 46.85 130.89 47.1L130.85 47.21C130.76 47.48 130.68 47.7 130.59 47.94L130.53 48.1C130.46 48.27 130.38 48.47 130.3 48.67C130.16 49 130.01 49.31 129.84 49.61L129.76 49.75C129.63 49.98 129.48 50.21 129.29 50.47C129.24 50.54 129.19 50.6 129.13 50.69C129.07 50.77 129.03 50.83 128.98 50.89C128.89 51 128.81 51.08 128.73 51.17L128.67 51.23C128.59 51.32 128.53 51.38 128.47 51.44C128.23 51.69 127.99 51.89 127.75 52.08C127.63 52.18 127.5 52.27 127.36 52.35L125.24 53.77H143.69L137.94 48L145.45 13.8L141.54 9.87L143.19 2.20999H237.18C242.34 2.20999 247.19 4.31999 250.47 7.98999C250.64 8.17999 250.8 8.37001 250.97 8.57001C254.88 13.28 256.31 19.54 255.02 26.2Z" fill="white"/>
<path d="M251.59 8.07999C251.42 7.87999 251.25 7.68001 251.07 7.48001C247.56 3.56001 242.46 1.44 237.2 1.44H199.86H174.28H142.6L140.72 10.12L144.63 14.05L137.12 48.25L141.85 53H132.34H131.07H127.81C127.96 52.9 128.1 52.8 128.24 52.7C128.51 52.5 128.77 52.26 129.04 51.99C129.11 51.92 129.18 51.84 129.27 51.75L129.31 51.7C129.4 51.6 129.49 51.5 129.59 51.38C129.65 51.31 129.7 51.24 129.77 51.14C129.82 51.07 129.88 51 129.93 50.92C130.13 50.64 130.29 50.39 130.44 50.14L130.49 50.05L130.52 49.99C130.7 49.67 130.87 49.32 131.01 48.97C131.1 48.77 131.18 48.56 131.25 48.38L131.28 48.3C131.3 48.25 131.32 48.2 131.33 48.17C131.41 47.95 131.49 47.73 131.58 47.45L131.62 47.34C131.71 47.07 131.79 46.79 131.88 46.51L131.94 46.31C132.01 46.06 132.08 45.8 132.15 45.53L132.19 45.37C132.27 45.06 132.35 44.74 132.42 44.42L138.18 18.18L138.19 18.12C138.38 17.14 138.54 16.26 138.67 15.49C138.73 15.08 138.78 14.68 138.82 14.23L138.83 14.09C138.86 13.74 138.87 13.4 138.87 13.08C138.87 12.8 138.86 12.52 138.84 12.22L138.83 12.07C138.82 11.97 138.81 11.87 138.79 11.77C138.77 11.59 138.74 11.41 138.71 11.23C138.69 11.12 138.66 11.02 138.63 10.88C138.59 10.72 138.55 10.57 138.5 10.44C138.47 10.35 138.45 10.26 138.42 10.19C138.36 10.02 138.29 9.86001 138.22 9.73001C138.12 9.52001 138 9.30999 137.86 9.10999L137.7 8.89001C137.56 8.70001 137.4 8.52001 137.23 8.35001L132.48 3.59L132.47 3.60001C132.04 3.17001 131.54 2.80001 130.96 2.51001C130.05 2.06001 128.97 1.77 127.68 1.62C126.6 1.5 125.29 1.44 123.77 1.44H112.69H111.05H102.41L101.79 4.28L98.9599 1.44H38.6999L37.8699 5.23001L36.2299 3.57999L36.2199 3.59C35.7899 3.16 35.2899 2.79001 34.7099 2.51001C33.7999 2.06001 32.7299 1.77 31.4299 1.62C30.3399 1.5 29.0599 1.44 27.5199 1.44H16.4399L6.18994 48.25L11.7399 53.82C7.92994 55.16 5.93993 57.65 4.87994 61.77C4.51994 63.16 3.76994 66.07 5.45994 68.47C5.57994 68.65 5.71994 68.82 5.86994 68.98L2.84994 69.03L2.17994 71.54C1.58994 73.8 1.14994 76.69 2.88994 78.99C3.04994 79.2 3.22994 79.41 3.42994 79.61L8.17994 84.37C10.3399 86.53 13.9999 87.27 22.7099 87.27C23.1499 87.27 23.5799 87.27 23.9899 87.26L24.3399 87.25C24.6599 87.24 24.9699 87.24 25.2699 87.23L25.5799 87.22C25.9699 87.21 26.3399 87.19 26.7099 87.17L26.8999 87.16C27.1999 87.14 27.4999 87.12 27.7799 87.1L28.0899 87.07C28.3699 87.05 28.6499 87.02 28.9199 86.99L29.1099 86.97C29.4399 86.93 29.7499 86.89 30.0499 86.85L30.2799 86.81C30.5199 86.77 30.7499 86.73 30.9799 86.69L31.2299 86.64C31.4899 86.59 31.7399 86.53 32.0099 86.47L32.0699 86.46C32.3499 86.39 32.6099 86.32 32.8699 86.24L33.0899 86.17C33.2899 86.11 33.4799 86.04 33.7099 85.95L33.8599 85.89C34.1099 85.79 34.3499 85.69 34.5699 85.59L34.6899 85.53C34.8899 85.44 35.0699 85.34 35.2499 85.24C35.3199 85.2 35.3799 85.17 35.4499 85.13C35.6299 85.02 35.7999 84.91 35.9599 84.81L36.0899 84.72C36.2899 84.58 36.4899 84.43 36.6699 84.27C36.7099 84.23 36.7499 84.2 36.8099 84.15C36.9499 84.03 37.0899 83.9 37.2599 83.73L37.3799 83.61C37.5199 83.46 37.6599 83.31 37.7899 83.16L37.9299 82.98C38.0599 82.81 38.1899 82.64 38.3099 82.46L38.4199 82.29C38.4299 82.27 38.4499 82.25 38.4599 82.23L40.0899 83.86C42.4699 86.24 46.4599 87.26 53.4499 87.26C53.8899 87.26 54.3199 87.26 54.7299 87.25L55.1099 87.24C55.4199 87.23 55.7199 87.23 56.0199 87.22L56.3699 87.21C56.7699 87.2 57.1599 87.18 57.5199 87.16H57.5799C57.9399 87.14 58.2899 87.11 58.6399 87.08L58.9599 87.05C59.2299 87.03 59.4899 87 59.7399 86.97L60.0399 86.94C60.3799 86.9 60.7199 86.85 61.0399 86.8L61.1099 86.79C61.4199 86.74 61.7099 86.69 61.9899 86.63L62.2699 86.57C62.4999 86.52 62.7299 86.47 62.9499 86.41L63.1999 86.35C63.4999 86.27 63.7899 86.19 64.0499 86.1C64.0999 86.09 64.1399 86.07 64.1499 86.07C64.4099 85.99 64.6599 85.89 64.8999 85.8L65.1399 85.7C65.3399 85.62 65.5399 85.53 65.7299 85.44L65.7799 85.42C65.8399 85.39 65.8999 85.36 65.9499 85.34C66.2099 85.21 66.4599 85.08 66.6999 84.93C66.7399 84.91 66.7799 84.88 66.7899 84.88C66.9999 84.75 67.2099 84.61 67.4199 84.47C67.4799 84.42 67.5499 84.38 67.6099 84.33L70.0799 86.8H108.03C108.03 86.8 109.33 81.54 109.91 79.25L113.72 86.8H160.59L161.24 84.31L161.3 84.37C161.71 84.79 162.19 85.15 162.74 85.47L164.55 86.24C166.68 86.91 169.71 87.21 174.27 87.26H174.33C174.82 87.27 175.32 87.27 175.84 87.27C176.25 87.27 176.65 87.27 177.04 87.26H244L255.79 26.34C257.12 19.46 255.63 12.97 251.59 8.07999Z" fill="black"/>
<path d="M146.26 47.42L154.63 9.29001H159.36L160.5 4.01001H144.67L143.53 9.29001H148.31L139.94 47.42H146.26Z" fill="white"/>
<path d="M160.33 47.42L165.51 23.69H171.01L165.83 47.42H172.2L181.71 4.01001H175.33L172.2 18.36H166.71L169.84 4.01001H163.52L154.01 47.42H160.33Z" fill="white"/>
<path d="M197.66 9.23001L198.79 4.01001H186.43L176.92 47.42H189.34L190.54 41.98H184.44L187.89 26.23H193.73L194.87 21.23H188.99L191.61 9.23001H197.66Z" fill="white"/>
<path d="M22.2501 55.11C11.1301 55.11 8.68007 57.36 7.38007 62.42C6.96007 64.05 6.69008 65.74 7.58008 67C8.74008 68.66 11.8001 69.47 18.4701 69.9C23.9301 70.26 26.2701 70.71 26.7901 71.47C26.9601 71.71 26.9701 72.01 26.8401 72.52L26.7901 72.63C26.4201 74.16 25.9501 74.84 18.7401 74.84C14.0101 74.84 11.3301 74.69 10.7201 73.89C10.5101 73.62 10.4901 73.23 10.6601 72.55L10.9501 71.49L4.84007 71.6L4.68007 72.21C4.02007 74.77 4.10007 76.34 4.95007 77.46C6.34007 79.3 9.75007 79.95 17.9701 79.95C29.1701 79.95 31.5501 78.08 33.0201 72.47C33.5801 70.27 33.4801 68.87 32.7101 67.77C31.4401 65.98 28.2201 65.04 21.9301 64.64C16.3001 64.29 14.1301 63.92 13.6501 63.24C13.4901 63.02 13.4801 62.74 13.6201 62.22C13.9701 60.85 14.8601 60.21 21.3901 60.21C26.0001 60.21 27.9901 60.48 28.5101 61.17C28.6901 61.41 28.7101 61.74 28.5701 62.29L28.3301 63.31L34.4201 63.16L34.5801 62.62C35.0101 60.95 35.3101 59.06 34.2901 57.7C32.9001 55.85 29.4101 55.11 22.2501 55.11Z" fill="#00E57D"/>
<path d="M59.44 69.83C58.56 73.15 57.49 74.4 49.62 74.4C45.42 74.4 43.46 73.98 42.65 72.91C41.87 71.89 42.1 70.16 42.73 67.69L42.78 67.44C44.15 62.08 45.61 60.63 53.24 60.63C57.75 60.63 59.89 61.03 60.63 62.01C61.14 62.69 61 63.74 60.64 65.1L60.54 65.47L66.66 65.32L66.72 65.07C67.56 61.73 67.43 59.57 66.28 58.07C64.7 55.98 61.05 55.1 54.11 55.1C42.67 55.1 39.08 57.53 36.64 66.93L36.35 67.98C35.23 72.23 35.34 74.93 36.71 76.75C38.39 78.98 41.97 79.93 48.71 79.93C60.19 79.93 63.48 77.99 65.46 70.06L65.55 69.71L59.5 69.57L59.44 69.83Z" fill="#00E57D"/>
<path d="M80.1504 69.8C83.7604 69.8 85.8204 69.8 92.3204 69.84H92.5804L93.8504 64.83H76.3904L77.4404 60.75H80.5904C84.7704 60.75 91.0904 60.75 96.0104 60.78L96.2704 60.79L97.6204 55.59H72.5904L72.5304 55.85C72.2204 57.21 71.9204 58.35 71.5104 59.94L67.4304 75.75C67.0904 77.08 66.8304 78.07 66.5404 79.13L66.4404 79.49H92.0304L93.3804 74.28H93.0004C89.3204 74.32 82.1404 74.32 77.8404 74.32H73.9104L75.0904 69.81H80.1504V69.8Z" fill="#00E57D"/>
<path d="M129.45 57.66C129.6 57.09 129.75 56.53 129.91 55.93L130.01 55.57H123.97L123.9 55.83C123.47 57.57 122.95 59.65 122.45 61.58L121.77 64.26C121.25 66.33 120.04 71.24 119.34 74.08H119.03L118.4 72.62C117.32 70.12 116.1 67.28 115.38 65.49L111.08 55.58H101.34L101.28 55.84C101.01 57.05 100.76 58.05 100.42 59.42L96.6702 74C96.0002 76.65 95.7702 77.46 95.3002 79.11L95.2002 79.47H101.28L101.34 79.21C101.78 77.41 102.32 75.28 102.81 73.38C103.03 72.51 103.24 71.69 103.42 70.98C103.9 69.13 104.59 66.32 105.25 63.61L105.9 60.96H106.24C107.48 63.85 108.77 66.86 109.86 69.46L114.31 79.47H123.84L123.9 79.21C124.29 77.64 124.63 76.29 125.25 73.87L128.76 60.22C129.04 59.24 129.25 58.43 129.45 57.66Z" fill="#00E57D"/>
<path d="M142 69.8C145.61 69.8 147.67 69.8 154.17 69.84H154.43L155.7 64.83H138.24L139.29 60.75H142.44C146.62 60.75 152.94 60.75 157.86 60.78L158.12 60.79L159.47 55.59H134.43L134.37 55.85C134.06 57.21 133.76 58.35 133.35 59.94L129.27 75.75C128.93 77.08 128.67 78.07 128.38 79.13L128.28 79.49H153.87L155.22 74.28H154.85C151.17 74.32 143.99 74.32 139.69 74.32H135.76L136.94 69.81H142V69.8Z" fill="#00E57D"/>
<path d="M175.38 55.11C164.26 55.11 161.81 57.36 160.51 62.42C160.08 64.05 159.82 65.74 160.7 67C161.87 68.66 164.92 69.47 171.59 69.9C177.05 70.26 179.38 70.71 179.91 71.47C180.08 71.71 180.09 72.01 179.96 72.52L179.91 72.63C179.54 74.16 179.08 74.84 171.86 74.84C167.13 74.84 164.46 74.69 163.84 73.89C163.63 73.62 163.62 73.23 163.78 72.55L164.07 71.49L157.95 71.6L157.79 72.21C157.13 74.77 157.21 76.34 158.06 77.46C159.45 79.3 162.86 79.95 171.08 79.95C182.27 79.95 184.66 78.08 186.13 72.47C186.69 70.27 186.59 68.87 185.81 67.77C184.54 65.98 181.32 65.04 175.03 64.64C169.4 64.29 167.23 63.92 166.74 63.24C166.58 63.02 166.58 62.74 166.71 62.22C167.07 60.85 167.95 60.21 174.48 60.21C179.09 60.21 181.08 60.48 181.6 61.17C181.78 61.41 181.8 61.74 181.65 62.29L181.41 63.31L187.5 63.16L187.67 62.62C188.1 60.95 188.4 59.06 187.37 57.7C186.03 55.86 182.55 55.11 175.38 55.11Z" fill="#00E57D"/>
<path d="M22.64 47.12C23.85 46.92 24.86 46.5 25.67 45.88C26.48 45.26 27.14 44.36 27.64 43.19C28.14 42.02 28.6 40.46 29.02 38.52L31.02 29.34C31.32 27.95 31.47 26.85 31.48 26.05C31.49 24.77 31.24 23.87 30.73 23.35C30.22 22.84 29.54 22.47 28.71 22.25L28.77 22.03C29.14 21.99 29.57 21.87 30.06 21.64C30.56 21.42 31.06 21.09 31.55 20.65C32.05 20.21 32.52 19.62 32.97 18.89C33.42 18.16 33.75 17.22 33.98 16.09L34.67 12.85C34.86 11.9 35.01 11.05 35.12 10.32C35.23 9.59001 35.3 8.91001 35.3 8.29001C35.31 7.38001 35.17 6.64 34.9 6.09C34.63 5.54 34.18 5.10999 33.56 4.79999C32.94 4.48999 32.13 4.28001 31.15 4.17001C30.16 4.06001 28.95 4.01001 27.52 4.01001H18.51L9 47.42H18.01C19.89 47.42 21.43 47.32 22.64 47.12ZM23.64 9.51001H26.34C27.18 9.51001 27.77 9.61 28.1 9.81C28.43 10.01 28.59 10.39 28.58 10.94C28.58 11.2 28.55 11.48 28.49 11.79C28.43 12.1 28.37 12.46 28.29 12.86L27.38 16.92C27.15 17.99 26.84 18.72 26.43 19.12C26.02 19.52 25.3 19.72 24.28 19.72H21.42L23.64 9.51001ZM20.28 24.73H23.13C23.9 24.73 24.44 24.84 24.75 25.06C25.06 25.28 25.21 25.66 25.21 26.21C25.21 26.72 25.13 27.29 24.98 27.91L22.65 38.52C22.5 39.25 22.33 39.85 22.17 40.31C22 40.77 21.8 41.12 21.56 41.35C21.32 41.59 21.02 41.75 20.65 41.85C20.28 41.94 19.81 41.99 19.22 41.99H16.52L20.28 24.73Z" fill="white"/>
<path d="M43.6798 47.42L44.8698 41.98H38.7798L42.2198 26.23H48.0698L49.2098 21.23H43.3298L45.9498 9.23001H51.9898L53.1298 4.01001H40.7698L31.2598 47.42H43.6798Z" fill="white"/>
<path d="M53.6804 47.42L58.8604 23.69H64.3604L59.1703 47.42H65.5504L75.0504 4.01001H68.6803L65.5504 18.36H60.0504L63.1904 4.01001H56.8703L47.3604 47.42H53.6804Z" fill="white"/>
<path d="M76.6999 47.42L86.2099 4.01001H79.8899L70.3799 47.42H76.6999Z" fill="white"/>
<path d="M86.9803 47.42L92.9003 20.33H93.1203L93.8403 47.42H100.49L110 4.01001H104.5L98.4203 31.87H98.1903L97.9103 4.01001H91.0403L81.5303 47.42H86.9803Z" fill="white"/>
<path d="M114.28 47.42C116.15 47.42 117.69 47.32 118.9 47.12C120.11 46.92 121.12 46.5 121.93 45.88C122.74 45.26 123.4 44.36 123.9 43.19C124.4 42.02 124.87 40.46 125.29 38.52L130.92 12.86C131.11 11.91 131.26 11.06 131.38 10.33C131.49 9.59999 131.55 8.91999 131.56 8.29999C131.57 7.38999 131.44 6.65001 131.16 6.10001C130.89 5.55001 130.44 5.12 129.83 4.81C129.21 4.5 128.41 4.28999 127.42 4.17999C126.43 4.06999 125.22 4.01999 123.8 4.01999H114.79L105.28 47.43H114.28V47.42ZM119.9 9.51001H122.59C123.43 9.51001 124.02 9.6 124.35 9.78C124.68 9.97 124.84 10.35 124.84 10.93C124.84 11.19 124.81 11.47 124.75 11.78C124.69 12.09 124.63 12.45 124.55 12.85L118.92 38.51C118.77 39.24 118.61 39.84 118.44 40.3C118.27 40.76 118.07 41.11 117.83 41.34C117.59 41.58 117.29 41.74 116.92 41.84C116.55 41.93 116.08 41.98 115.49 41.98H112.8L119.9 9.51001Z" fill="white"/>
<path d="M232.34 4.57999C220.87 4.57999 209.77 13.88 207.55 25.35L196.99 79.94H238.54L249.1 25.35C251.31 13.88 243.81 4.57999 232.34 4.57999Z" fill="#00E57D"/>
<path d="M242.72 10.92C234.3 10.7 221.93 16.07 218.76 32.46C216.31 45.14 211.19 71.58 211.19 71.58L236.72 77.7L246.85 25.36C247.97 19.52 246.28 14.32 242.72 10.92ZM220.19 48.28C219 48.28 218.22 47.31 218.45 46.12C218.68 44.93 219.83 43.96 221.03 43.96C222.23 43.96 223 44.93 222.77 46.12C222.54 47.31 221.39 48.28 220.19 48.28Z" fill="black"/>
</svg>
