<svg id="Lag_1" data-name="Lag 1" xmlns="http://www.w3.org/2000/svg" viewBox="0 0 1262.99 745.02"><defs><style>.cls-1{fill:#000101;}.cls-2{fill:#00c2fd;}.cls-3{fill:#00c2fe;}.cls-4{fill:#00c1fc;}.cls-5{fill:#00c1fd;}.cls-6{fill:#fafbfb;}.cls-7{fill:#fcfcfc;}.cls-8{fill:#f9f9f9;}.cls-9{fill:#fbfbfb;}.cls-10{fill:#fdfdfd;}.cls-11{fill:#000001;}</style></defs><path class="cls-1" d="M1518.62,447.32c5,6,10.08,11.86,14.82,18,25.34,33,41.66,70,50.37,110.59a241.1,241.1,0,0,1,5.3,52.79c-.17,21.93.67,43.9-1.84,65.77a98.25,98.25,0,0,1-8.55,31.24c-7,14.82-17.7,24.93-33.76,29-15.83,4.06-31.58,8.47-47.63,11.65a32.48,32.48,0,0,0-3.7.82c-5.24,1.71-6.64,7.41-2.77,11.33q22.23,22.56,44.48,45.08c.71.71,2.08,1.29,1.8,2.37s-1.75.88-2.7,1.12c-12.48,3.11-25,6.23-37.47,9.19-2.66.62-2.66,1.27-1.1,3.3q18.56,24.25,36.94,48.63,4.07,5.36.93,9.53c-2.15,2.87-5,3.44-9.39,1.81-45.95-16.9-92.18-33-139.38-46.08-42.64-11.86-85.63-22.21-129.16-30.26-15.22-2.82-30.47-5.46-45.72-8.07a6.77,6.77,0,0,1-4.06-2.11c-1.43-1.52-3-2.92-4.48-4.36-1,.43-.57,1.29-.59,1.93q-.45,13.76-.82,27.52a27.8,27.8,0,0,1-27.41,26.89c-26.71.07-53.42,0-80.13,0a26.49,26.49,0,0,1-19.07-7.89c-1.87-1.81-3.61-3.74-5.41-5.62l-1.28.34c0,6.27.08,12.55,0,18.82-.09,5.78.17,11.6-1.46,17.27a34.19,34.19,0,0,1-32.67,24.76q-70.16.06-140.3,0a32.68,32.68,0,0,1-24.08-10.2Q851,885,833.66,867.38a7,7,0,0,0-5.5-2.34c-23.75.09-47.51,0-71.26.11a28.67,28.67,0,0,1-21.79-9.06c-11.42-11.72-23-23.3-34.38-35a5,5,0,0,0-5.17-1.68,1598.93,1598.93,0,0,0-196.19,47c-24.64,7.55-49.11,15.66-73.32,24.51a3,3,0,0,1-3.81-.79Q388.76,856,355.17,822a18.56,18.56,0,0,1-1.23-1.59l33.84-19.89-18.45-4.95a80.51,80.51,0,0,0-9.16-2.36c-4.41-.64-7.38-3-10-6.39-10.88-13.74-16.86-29.53-19.9-46.61-1.77-9.91-2-19.91-1.94-29.94q0-229.83.09-459.66c0-7.3,1.54-14.51,6.8-20.16,2.94-3.15,6.3-5.8,10.73-6.81,17.77-4.07,35.79-6.84,53.74-10q37.88-6.57,76-11.92c15.61-2.2,31.25-3.72,46.91-.33,4.53,1,9.06,2,13.55,3.23,10.73,2.84,19.28,9.25,27.08,16.83.64.63,1.21,1.34,2.44,2.69a55.32,55.32,0,0,1,2.07-20c1.21-4.23,3.83-7.4,6.88-10.3,5.9-5.61,13.63-6.46,21.09-7.31q39.79-4.5,79.74-7.61c19.35-1.52,38.67-3.51,58.11-3.77a131.41,131.41,0,0,1,43.22,7.1,63.54,63.54,0,0,1,33.78,26.35c.8,1.22,1.66,2.41,2.58,3.72,1-1,.53-2.08.53-3,0-7.06-.23-14.09,1.95-21,2.72-8.58,8.07-14.11,16.78-16.65,6.17-1.81,12.45-2.07,18.76-2.21,20.69-.45,41.37-1.09,62.06-1.05,6.75,0,13.62,1.63,18.94,6.62,1.2,1.12,2,1.08,3.25,0,6.55-5.76,14.52-7.27,22.9-7.26q44,.08,88,1.48c23.32.75,46.62,1.75,69.92,2.87a106.74,106.74,0,0,1,18.36,2.82c2.28.51,3.93,2,5.73,3.21.79.56,1.38,1,2.52.47a35,35,0,0,1,17.91-3.79q53.41,3.39,106.66,8.74c15.22,1.5,30.46,2.91,45.63,4.88,6.67.87,13.64,1.7,19.06,6.62,3.56,3.23,6.66,6.68,7.68,11.59.76,3.68,1.7,7.33,2.57,11,3.17-2.36,6.47-4.76,9.71-7.25,7.36-5.65,16.21-7.33,24.9-9.55,15.46-3.95,31-3.07,46.53-1,22.78,3.09,45.47,6.75,67.85,12.14,26.36,6.34,47.26,20.61,63,42.51,14.35,19.9,22.69,42.41,28.23,66.06,7,30,9.06,60.45,8.69,91.14-.17,15.2-1.14,30.35-2.69,45.47-.29,2.8-.92,3.6-4,3-20.94-4.4-41.93-8.57-62.91-12.79-.92-.19-1.87-.21-2.8-.31-.21-.07-.59-.23-.6-.21C1518.08,447.25,1518.38,447.27,1518.62,447.32Zm-756-16.19c1.42-.64,2.17-1,2.93-1.33,14.25-6.15,23.92-16.58,29.22-31.12,4.62-12.73,6.22-26,6.81-39.39,1-23.31.49-46.63.44-69.94,0-15.72-.84-31.41-4.82-46.75-4.92-18.94-15.56-32.52-35.23-37.68a105,105,0,0,0-18.41-2.9c-15.24-1.21-30.37.43-45.51,1.57-34,2.57-67.94,5.58-101.82,9.36-4.22.48-4.22.41-4.22,4.77V664.05c0,.74.06,1.48,0,2.21-.18,1.66.3,2.17,2.1,1.86,23.17-4,46.31-8,69.42-12.3,2.74-.51,3.26-1.48,3.26-4q-.12-85.78,0-171.57c0-2.4-1-5.34.45-7.05s4.38-.74,6.66-.95c8.5-.8,17-1.59,25.55-2,15.76-.78,23.86,5.9,26.43,21.4A84.71,84.71,0,0,1,727,505.48q0,46.85,0,93.7c0,15.61.36,31.21,2.42,46.74.39,2.89,1.31,3.48,4.17,3.1,7.73-1,15.52-1.59,23.28-2.45,15.83-1.76,31.71-3.19,47.39-6.15,1.92-.37,2.32-.86,2-2.83a261,261,0,0,1-4.05-46.27c-.09-24.06-.06-48.11-.13-72.17,0-12.87-.4-25.73-2.35-38.49a89.19,89.19,0,0,0-6.93-24.53C786.79,443.29,776.81,435.14,762.6,431.13ZM1343.35,565.9c0,8,0,16,0,24.06.07,17.09.57,34.16,4.36,50.94,4.57,20.24,15,36,34.27,45.07a125,125,0,0,0,27.64,8.89c15.38,3.19,31,5,46.47,7.55,13.55,2.27,27.14,3.87,40.93,3.11,20.69-1.14,33.81-11.14,40.08-30.87,3.35-10.54,4.68-21.44,5.13-32.42,1-23.62.92-47.25.11-70.87-1-30.39-10.31-57.87-28.61-82.3-13.7-18.3-29.32-34.87-45.14-51.3-12.14-12.61-24.51-25-34.86-39.26-8.62-11.84-14.14-24.88-15.33-39.59-1.16-14.33-.69-28.68-.31-43a32.47,32.47,0,0,1,1.19-7.16c1.37-5.32,4.65-8.64,10.35-9.14,8.64-.75,17,1.2,25.31,3,9.12,2,14.4,7.8,15.79,17.13a93.23,93.23,0,0,1,1.06,13.86c0,18.78.08,37.56,0,56.34,0,2.33.74,3.12,2.89,3.42,4.8.67,9.58,1.48,14.35,2.32q25.37,4.49,50.71,9c1.77.32,2.89.45,2.87-2.08-.24-26.7.43-53.4-.5-80.08a164.62,164.62,0,0,0-4.38-32.89c-5.26-21.79-17.58-37.76-38.34-46.85a128.68,128.68,0,0,0-18.17-6.36c-18-4.82-36.47-6.89-54.82-9.66-13.38-2-26.82-3.13-40.35-1.29-17.58,2.41-29.73,11.56-35.88,28.4-3.83,10.5-5.44,21.42-6.19,32.48-1.37,20.24-.9,40.5-.57,60.75.53,33,10.51,62.68,31.63,88.46,13.33,16.28,28.09,31.2,42.83,46.16,11.62,11.8,23.3,23.57,33.25,36.89,8.25,11,14.47,23.11,16.16,36.92,2.45,20.06,1.8,40.23.61,60.34-.57,9.56-4.85,14.23-12.85,14.25a95,95,0,0,1-30.77-5c-5.66-1.93-9.26-6-10.89-11.85a52.25,52.25,0,0,1-1.76-14.07q-.06-36.39-.06-72.8c0-2.09-.24-3.07-2.75-3.39q-31.51-4-63-8.5c-2.51-.35-2.48.83-2.48,2.61Q1343.38,541.53,1343.35,565.9ZM354.44,480.3V708.85c0,.74,0,1.48,0,2.21-.09,1.7.38,2,2.22,1.66,10.76-2.08,21.56-4,32.36-5.86,12.2-2.13,24.38-4.4,36.64-6.09,3.52-.48,3.55-1.95,3.55-4.58q-.07-80.41-.11-160.81c0-2.52.66-3.43,3.1-3.78,11.43-1.66,22.82-3.55,34.25-5.19,13.21-1.91,26.43-3.77,39.24-7.65,11.22-3.39,21.91-7.86,30.82-15.77,13.89-12.34,19-28.8,21.88-46.36,2-12.3,2.33-24.74,2.28-37.12-.19-44.18,1.21-88.38-1-132.54a117,117,0,0,0-4.46-26.86C550,242,538.68,230.33,519.71,227c-14.61-2.56-29.19-1.16-43.71.89-12.95,1.83-25.86,4-38.78,6-12.14,1.91-24.28,3.79-36.39,5.84-14.13,2.4-28.21,5.06-42.35,7.4-3,.49-4.14,1.31-4.13,4.65Q354.52,366,354.44,480.3ZM1155.75,422V638.84c0,.84,0,1.69,0,2.53-.09,1.41.42,2,1.94,2.21,3.85.48,7.67,1.25,11.51,1.82,13.42,2,26.83,4,40.11,6.76,18.6,3.87,37.22,7.68,55.79,11.68,16.19,3.49,32.44,6.77,48.18,12,2.54.86,2.5-.27,2.49-2.11q0-21.84,0-43.68,0-9.35,0-18.68c0-1.42.06-2.56-2-2.77-13.34-1.36-26.65-2.95-40-4.32-13.17-1.35-26.35-2.64-39.55-3.68-2.73-.21-3.12-1-3.12-3.49q.12-64.57.06-129.16c0-.63,0-1.26,0-1.9-.07-1.19.36-1.72,1.66-1.58,2.51.28,5,.43,7.55.68,9.8,1,19.61,2,29.41,2.94,9,.88,18,1.46,26.87,2.73,3,.43,3-.42,3-2.66q-.07-32.13,0-64.26c0-4.63,0-4.5-4.6-4.86-7-.54-14-1.27-21-2-8-.79-16.07-1.63-24.11-2.44-5.54-.56-11.08-1.14-16.63-1.61-1.75-.15-2.14-.91-2.14-2.59q.08-55.08,0-110.16c0-1.87.57-2.33,2.33-2.15,5,.51,10.08.88,15.12,1.33,7.33.66,14.66,1.28,22,2s14.79,1.55,22.17,2.38c6.55.73,13.1,1.42,19.61,2.36,2.59.38,3.54-.06,3.52-2.9-.12-15.51-.06-31-.06-46.54,0-6.43,0-12.87,0-19.31,0-1.16.39-2.5-1.68-2.69-5.21-.49-10.39-1.29-15.59-1.83-9-.92-18-1.71-26.93-2.62-9.83-1-19.64-2.14-29.47-3-11-1-22-1.82-33-2.67-16.5-1.27-33-2.42-49.51-3.78-3-.25-3.83.5-3.82,3.64Q1155.82,313.26,1155.75,422ZM1023.36,195q-33.57-.43-67.13-.89c-2,0-3.23,0-3.21,2.75q.18,32.92,0,65.85c0,2.3.74,2.77,2.88,2.76,28.51-.12,57,.58,85.5,1.28,4.53.11,4.52.07,3.25,4.31q-46,153.3-92,306.58c-2.93,9.73-5.94,19.34-4.9,29.71.19,1.93.2,2.71,2.61,2.2,9-1.92,18.2-2.76,27.38-1.5,11.16,1.52,21.5,4.8,27.72,15.33a2.91,2.91,0,0,0,2.91,1.4,240.09,240.09,0,0,1,25.56,1.76c17.7,2.06,35.43,3.93,53.11,6.15,11.61,1.45,23.16,3.32,34.72,5.13,2.43.38,3.29,0,3.26-2.72-.13-13.08-.1-26.17,0-39.25,0-2.17-.6-2.86-2.81-3q-45.69-2.28-91.42-3.64c-4.73-.14-4,.13-2.82-3.89q47.67-157.91,95.37-315.79c.67-2.2,1.63-4.35,1.63-6.73q0-30.7,0-61.41c0-1.73-.44-2.38-2.29-2.45-7.06-.27-14.11-.8-21.18-1.09C1075.47,196.77,1049.42,195.58,1023.36,195ZM914.72,615.69a3.75,3.75,0,0,0,.46-2.66q0-207.78.06-415.56c0-2.31-.47-2.95-2.92-2.94-22.89,0-45.76.81-68.63,1.33-4,.09-4,0-4,4.13V631.06c0,5.79,0,5.72,5.67,5.41a2.72,2.72,0,0,0,2.83-1.92c.85-2.26,1.83-4.47,2.82-6.68,3.09-6.86,7.25-13,13.87-16.78,11.41-6.53,23.5-6.12,35.78-2.77C905.86,609.75,910.26,612.8,914.72,615.69ZM431.19,784.34c-1.37,1.48-2.33,2.45-3.2,3.48-10.66,12.62-21.25,25.29-32.73,37.2-.69.71-2.14,1.35-1.44,2.49s1.89,0,2.77-.26q50.12-17.71,101.07-32.8,54.55-16.07,110.17-28,30.25-6.45,60.79-11.36c2.91-.47,3.84-1.25,3.88-4.17.18-11.28.74-22.56.91-33.84.14-9.12-7.67-15.47-16.69-13.85q-8.07,1.46-16.13,2.94c-24,4.38-48,9-71.81,14.52-29.81,6.87-59.45,14.38-88.85,22.85Q435.1,756.45,391,771.76a3.55,3.55,0,0,0-2.44,1.87Zm983.65.11c1.36-.41,2.22-.72,3.11-.94,12.44-3.09,24.88-6.16,37.31-9.3.78-.2,2.24.15,2.2-1.19,0-1-1.3-.85-2-1.18-.38-.17-.76-.36-1.15-.51q-63.78-22.71-129.29-39.85c-43.25-11.31-87-20.47-131-28.25-8.57-1.51-17.09,4.69-17.49,13.16-.56,11.9-.81,23.82-1.23,35.72,0,1.61.36,2.51,2.17,2.79q11.83,1.86,23.63,4c33.45,5.9,66.63,13,99.61,21.17q40.86,10.05,81.1,22.38c19.76,6.06,39.45,12.33,58.9,19.36,4.47,1.62,8.89,3.6,13.88,4C1441,812.42,1428.12,798.51,1414.84,784.45ZM926.15,678.08c-.88-.53-.92-1.45-1.24-2.21-5.44-12.64-11.86-24.72-20.43-35.54A33.83,33.83,0,0,0,891.87,630c-6.72-3-13-2-18.74,2.44-5.4,4.15-7.33,9.86-6.42,16.54,1,7.63,4.89,14,9,20.36a2,2,0,0,0,1.79,1.08h10.21c-1.34-1.83-2.33-3.15-3.29-4.5a35,35,0,0,1-5.72-12.59c-.88-3.86-.42-7.35,3.18-9.83s7.11-2.14,10.66,0a34.84,34.84,0,0,1,10.2,10.25c6,8.63,9.89,18.33,13.88,28,1.11,2.66.4,3.07-2.21,3.06-20.58-.09-41.16-.06-61.74,0a30.21,30.21,0,0,0-5,.33,15.18,15.18,0,0,0-12.43,14.06c-.4,9.58-.67,19.18-1.13,28.76-.11,2.18.4,2.86,2.7,2.86q87.87-.09,175.73,0c2.1,0,2.68-.59,2.72-2.66.15-8.54.46-17.08.77-25.62.42-11.78-5.25-17.74-17-17.74q-30.87,0-61.75,0c-2.26,0-3-.25-1.9-2.68,4.1-8.8,8.18-17.62,13.76-25.59,4.06-5.81,8.47-11.38,15.35-14.19,3.29-1.34,6.23-.44,8.82,1.74s2.9,4.77,2.24,7.76a36.52,36.52,0,0,1-6.7,13.84c-1.08,1.45-2.21,2.86-3.66,4.73,3.76,0,6.8,0,9.84,0a2.11,2.11,0,0,0,1.94-.8c4.9-7,9.88-14.07,10.78-22.93A16.66,16.66,0,0,0,968,628.6c-7.16,1.25-12.45,5.61-17,10.83-9.17,10.44-16.41,22.18-22.56,34.62C927.76,675.43,927.4,677,926.15,678.08ZM945.3,801.89c-.47,15.39-.89,30.78-1.47,46.16-.08,2.3.6,2.79,2.77,2.78,14.14-.09,28.27,0,42.41-.05,10.38,0,16-5.15,16.33-15.45.87-26.56,1.54-53.12,2.41-79.67.07-2.3-.77-2.55-2.68-2.54q-27.84.07-55.7,0c-2.08,0-2.62.57-2.67,2.64C946.31,771.12,945.79,786.51,945.3,801.89Zm-45.95-.25h0c.45-15.29.85-30.58,1.42-45.86.08-2.16-.46-2.67-2.56-2.66q-28,.11-56.05,0c-1.6,0-2.44.18-2.5,2.16-.76,27.21-1.66,54.41-2.4,81.62-.21,8,5.67,13.79,13.7,13.83,14.78.08,29.56,0,44.34.07,2.1,0,2.64-.63,2.68-2.67C898.38,832.64,898.88,817.14,899.35,801.64Zm172.71-100.91c-2.55-3.22-4.51-6.32-5.13-10.07a4.48,4.48,0,0,1,1.74-4.76,4.85,4.85,0,0,1,5.33-.62,16.67,16.67,0,0,1,5.88,5.18c3.64,4.73,5.67,10.3,8.08,15.67,1,2.23.79,3-2,3-11.08-.15-22.16-.09-33.24,0-7.14,0-10.24,3-10.5,10.09-.16,4.22,0,8.46-.46,12.64-.31,3,.8,3.42,3.47,3.41q45.75-.13,91.49-.06c1.79,0,3.59-.1,5.38,0s2.31-.6,2.32-2.36c0-4.21.2-8.43.36-12.64.33-8.21-2.44-11.12-10.67-11.12-10.87,0-21.74-.05-32.61,0-2.26,0-2.88-.45-1.79-2.63,2.31-4.61,4.38-9.36,7.35-13.61,2.12-3,4.54-5.83,8-7.54a4.67,4.67,0,0,1,5.57.71c1.52,1.34,1.7,3,1.19,4.91a19.72,19.72,0,0,1-2.44,5.46c-.92,1.45-1.92,2.86-3,4.43,7.25.25,5.46,1.1,9-4.41a26.13,26.13,0,0,0,2.57-5.42c1.76-4.94.88-8.85-2.4-11.53-3.63-3-8.17-3-12.65-.19-3.63,2.31-6.28,5.58-8.79,9a129.23,129.23,0,0,0-10.17,17,106.73,106.73,0,0,0-10.62-19.21c-2.17-3-4.59-5.82-7.93-7.59a9.92,9.92,0,0,0-11.3.89c-3.5,2.62-4.55,6.14-3.62,10.37a26.24,26.24,0,0,0,2.61,6.75C1065.7,701.47,1065.7,701.47,1072.06,700.73Zm-337.45-.18a24.15,24.15,0,0,1-4.84-9.15c-.56-2.14-.25-4,1.51-5.42a4.83,4.83,0,0,1,5.88-.47,21,21,0,0,1,7.52,7.94,121.3,121.3,0,0,1,6.17,12.79c1.07,2.35.59,3-2.06,3-11.29-.16-22.58-.15-33.87-.1-6.4,0-9.75,3.33-10,9.72-.17,4.75-.16,9.5-.41,14.24-.09,1.73.46,2.14,2.1,2.14q49.08-.06,98.15,0c1.77,0,2.4-.5,2.39-2.31,0-4.43.17-8.86.28-13.29.19-7.77-2.46-10.51-10.27-10.52-11,0-22-.07-32.93,0-2.59,0-2.86-.67-1.79-2.82a123.2,123.2,0,0,1,6.91-12.8,23.47,23.47,0,0,1,7.14-7.5c1.44-.88,2.94-1.67,4.76-1.1,3,.93,4.1,3.4,3,6.85-1,3.3-3.1,6-5.44,9.29,2.82-.64,5.37,1,7.12-1.35A27.92,27.92,0,0,0,791.27,689c.82-3.71.08-7-2.93-9.41a9.52,9.52,0,0,0-10.09-1.66,20.42,20.42,0,0,0-8.2,6.29,94,94,0,0,0-12.11,18.85c-.32.66-.29,1.73-1.61,1.86a86,86,0,0,0-11.94-21,18.43,18.43,0,0,0-7.32-5.88A10.08,10.08,0,0,0,723,687.57c.06,3.27,1.33,6.15,2.8,9C728.3,701.31,728.42,701.34,734.61,700.55Zm33.65,75H766.7c0,8.32.06,16.64-.05,25,0,2,.32,2.79,2.53,2.76,7.91-.13,15.82,0,23.72-.07,5.19,0,8.43-3.27,8.61-8.49.48-14.75.86-29.49,1.43-44.23.09-2.38-.74-2.76-2.84-2.74-9.69.1-19.39.13-29.09,0-2.34,0-2.81.77-2.79,2.87C768.32,758.89,768.26,767.21,768.26,775.53Zm-27.45-.09h1.51c0-8.22-.09-16.44.07-24.66,0-2.25-.25-3.13-2.81-3.09q-14.55.24-29.12,0c-2.31,0-2.79.79-2.84,2.88-.39,14.65-.92,29.29-1.32,43.94-.15,5.5,3,8.64,8.57,8.67,7.7,0,15.4-.07,23.1.06,2.22,0,2.91-.63,2.88-2.83C740.75,792.09,740.81,783.77,740.81,775.44Zm337.25-.24h1.56c0-8.22-.08-16.44.06-24.65,0-2.18-.48-2.87-2.75-2.84q-14.55.19-29.1,0c-2.18,0-2.88.55-2.93,2.78-.34,14.54-.86,29.08-1.27,43.62-.16,6,2.82,9.06,8.74,9.08,7.59,0,15.19-.07,22.78,0,2.15,0,3-.52,2.95-2.76C1078,792.05,1078.06,783.62,1078.06,775.2Zm27.48.68H1104c0,8.11.09,16.22-.06,24.33,0,2.3.39,3.1,2.87,3,7.49-.18,15-.06,22.46-.07,6.29,0,9.36-2.92,9.56-9.16.48-14.64.88-29.29,1.42-43.92.08-2.13-.71-2.4-2.53-2.38-9.8.07-19.61.11-29.41,0-2.32,0-2.82.79-2.8,2.89C1105.59,759,1105.54,767.45,1105.54,775.88Z" transform="translate(-328.29 -167.79)"/><path class="cls-2" d="M762.6,431.13c14.21,4,24.19,12.16,30.17,25a89.19,89.19,0,0,1,6.93,24.53c1.95,12.76,2.32,25.62,2.35,38.49.07,24.06,0,48.11.13,72.17a261,261,0,0,0,4.05,46.27c.36,2,0,2.46-2,2.83-15.68,3-31.56,4.39-47.39,6.15-7.76.86-15.55,1.42-23.28,2.45-2.86.38-3.78-.21-4.17-3.1-2.06-15.53-2.39-31.13-2.42-46.74q-.07-46.84,0-93.7a84.71,84.71,0,0,0-1.15-13.86c-2.57-15.5-10.67-22.18-26.43-21.4-8.53.42-17,1.21-25.55,2-2.28.21-5.3-.68-6.66.95s-.45,4.65-.45,7.05q0,85.78,0,171.57c0,2.54-.52,3.51-3.26,4-23.11,4.27-46.25,8.32-69.42,12.3-1.8.31-2.28-.2-2.1-1.86.07-.73,0-1.47,0-2.21V217.72c0-4.36,0-4.29,4.22-4.77,33.88-3.78,67.83-6.79,101.82-9.36,15.14-1.14,30.27-2.78,45.51-1.57a105,105,0,0,1,18.41,2.9c19.67,5.16,30.31,18.74,35.23,37.68,4,15.34,4.79,31,4.82,46.75,0,23.31.58,46.63-.44,69.94-.59,13.4-2.19,26.66-6.81,39.39-5.3,14.54-15,25-29.22,31.12C764.77,430.13,764,430.49,762.6,431.13Zm-95.9-91.68c0,19.83,0,39.66-.05,59.48,0,2.26.5,2.84,2.8,2.5,3.75-.55,7.56-.64,11.34-1,9.34-.9,18.75-1.07,28-2.51,10.36-1.62,15.14-6.35,17.06-16.66A76.57,76.57,0,0,0,727,367.4q0-30.86,0-61.7a151,151,0,0,0-.65-15.48c-1.12-11.06-5.8-15.51-16.92-16a40.74,40.74,0,0,0-4.42.05c-11.78.88-23.55,1.89-35.34,2.6-2.61.16-3,1.05-3,3.36C666.73,300,666.7,319.73,666.7,339.45Z" transform="translate(-328.29 -167.79)"/><path class="cls-2" d="M1343.35,565.9q0-24.37,0-48.75c0-1.78,0-3,2.48-2.61q31.47,4.4,63,8.5c2.51.32,2.76,1.3,2.75,3.39q0,36.41.06,72.8a52.25,52.25,0,0,0,1.76,14.07c1.63,5.81,5.23,9.92,10.89,11.85a95,95,0,0,0,30.77,5c8,0,12.28-4.69,12.85-14.25,1.19-20.11,1.84-40.28-.61-60.34-1.69-13.81-7.91-25.87-16.16-36.92-9.95-13.32-21.63-25.09-33.25-36.89-14.74-15-29.5-29.88-42.83-46.16-21.12-25.78-31.1-55.45-31.63-88.46-.33-20.25-.8-40.51.57-60.75.75-11.06,2.36-22,6.19-32.48,6.15-16.84,18.3-26,35.88-28.4,13.53-1.84,27-.73,40.35,1.29,18.35,2.77,36.83,4.84,54.82,9.66a128.68,128.68,0,0,1,18.17,6.36c20.76,9.09,33.08,25.06,38.34,46.85a164.62,164.62,0,0,1,4.38,32.89c.93,26.68.26,53.38.5,80.08,0,2.53-1.1,2.4-2.87,2.08q-25.35-4.53-50.71-9c-4.77-.84-9.55-1.65-14.35-2.32-2.15-.3-2.9-1.09-2.89-3.42.11-18.78,0-37.56,0-56.34a93.23,93.23,0,0,0-1.06-13.86c-1.39-9.33-6.67-15.13-15.79-17.13-8.32-1.82-16.67-3.77-25.31-3-5.7.5-9,3.82-10.35,9.14a32.47,32.47,0,0,0-1.19,7.16c-.38,14.34-.85,28.69.31,43,1.19,14.71,6.71,27.75,15.33,39.59,10.35,14.22,22.72,26.65,34.86,39.26,15.82,16.43,31.44,33,45.14,51.3,18.3,24.43,27.58,51.91,28.61,82.3.81,23.62.87,47.25-.11,70.87-.45,11-1.78,21.88-5.13,32.42-6.27,19.73-19.39,29.73-40.08,30.87-13.79.76-27.38-.84-40.93-3.11-15.48-2.59-31.09-4.36-46.47-7.55A125,125,0,0,1,1382,686c-19.32-9.05-29.7-24.83-34.27-45.07-3.79-16.78-4.29-33.85-4.36-50.94C1343.32,581.94,1343.35,573.92,1343.35,565.9Z" transform="translate(-328.29 -167.79)"/><path class="cls-3" d="M354.44,480.3q0-114.29-.09-228.55c0-3.34,1.12-4.16,4.13-4.65,14.14-2.34,28.22-5,42.35-7.4,12.11-2,24.25-3.93,36.39-5.84,12.92-2,25.83-4.15,38.78-6,14.52-2,29.1-3.45,43.71-.89,19,3.34,30.24,15,35.5,33.12A117,117,0,0,1,559.67,287c2.2,44.16.8,88.36,1,132.54.05,12.38-.27,24.82-2.28,37.12-2.87,17.56-8,34-21.88,46.36-8.91,7.91-19.6,12.38-30.82,15.77-12.81,3.88-26,5.74-39.24,7.65-11.43,1.64-22.82,3.53-34.25,5.19-2.44.35-3.1,1.26-3.1,3.78q.15,80.4.11,160.81c0,2.63,0,4.1-3.55,4.58-12.26,1.69-24.44,4-36.64,6.09-10.8,1.88-21.6,3.78-32.36,5.86-1.84.36-2.31,0-2.22-1.66,0-.73,0-1.47,0-2.21Zm74.72-97v64.55c0,3.59,0,7.17,0,10.76,0,1.44.09,2,1.9,1.55,3.15-.77,6.43-1,9.64-1.53,9.12-1.55,18.37-2.42,27.4-4.5,7.29-1.67,13-5.49,15.37-12.88a48.69,48.69,0,0,0,2.09-15.16c0-29.74,0-59.49,0-89.23,0-7.26.49-14.53-.63-21.76-1.07-6.95-3.29-12.59-10.94-13.78a30.38,30.38,0,0,0-9.13-.09c-11,1.58-22,3.23-33,4.77-2.27.32-2.72,1.43-2.72,3.57C429.19,334.18,429.16,358.75,429.16,383.33Z" transform="translate(-328.29 -167.79)"/><path class="cls-3" d="M1155.75,422q0-108.74-.07-217.47c0-3.14.79-3.89,3.82-3.64,16.5,1.36,33,2.51,49.51,3.78,11,.85,22,1.67,33,2.67,9.83.9,19.64,2,29.47,3,9,.91,18,1.7,26.93,2.62,5.2.54,10.38,1.34,15.59,1.83,2.07.19,1.67,1.53,1.68,2.69,0,6.44,0,12.88,0,19.31,0,15.52-.06,31,.06,46.54,0,2.84-.93,3.28-3.52,2.9-6.51-.94-13.06-1.63-19.61-2.36-7.38-.83-14.77-1.65-22.17-2.38s-14.64-1.35-22-2c-5-.45-10.08-.82-15.12-1.33-1.76-.18-2.33.28-2.33,2.15q.08,55.08,0,110.16c0,1.68.39,2.44,2.14,2.59,5.55.47,11.09,1.05,16.63,1.61,8,.81,16.07,1.65,24.11,2.44,7,.69,14,1.42,21,2,4.59.36,4.6.23,4.6,4.86q0,32.13,0,64.26c0,2.24,0,3.09-3,2.66-8.9-1.27-17.91-1.85-26.87-2.73-9.8-1-19.61-2-29.41-2.94-2.52-.25-5-.4-7.55-.68-1.3-.14-1.73.39-1.66,1.58,0,.64,0,1.27,0,1.9q0,64.58-.06,129.16c0,2.44.39,3.28,3.12,3.49,13.2,1,26.38,2.33,39.55,3.68,13.34,1.37,26.65,3,40,4.32,2.09.21,2,1.35,2,2.77q0,9.35,0,18.68,0,21.84,0,43.68c0,1.84,0,3-2.49,2.11-15.74-5.28-32-8.56-48.18-12-18.57-4-37.19-7.81-55.79-11.68-13.28-2.76-26.69-4.78-40.11-6.76-3.84-.57-7.66-1.34-11.51-1.82-1.52-.2-2-.8-1.94-2.21.06-.84,0-1.69,0-2.53Z" transform="translate(-328.29 -167.79)"/><path class="cls-2" d="M1023.36,195c26.06.61,52.11,1.8,78.15,2.88,7.07.29,14.12.82,21.18,1.09,1.85.07,2.3.72,2.29,2.45q-.06,30.71,0,61.41c0,2.38-1,4.53-1.63,6.73Q1075.65,427.44,1028,585.32c-1.21,4-1.91,3.75,2.82,3.89q45.72,1.39,91.42,3.64c2.21.11,2.82.8,2.81,3-.09,13.08-.12,26.17,0,39.25,0,2.71-.83,3.1-3.26,2.72-11.56-1.81-23.11-3.68-34.72-5.13-17.68-2.22-35.41-4.09-53.11-6.15a240.09,240.09,0,0,0-25.56-1.76,2.91,2.91,0,0,1-2.91-1.4c-6.22-10.53-16.56-13.81-27.72-15.33-9.18-1.26-18.35-.42-27.38,1.5-2.41.51-2.42-.27-2.61-2.2-1-10.37,2-20,4.9-29.71q46.08-153.25,92-306.58c1.27-4.24,1.28-4.2-3.25-4.31-28.5-.7-57-1.4-85.5-1.28-2.14,0-2.89-.46-2.88-2.76q.13-32.93,0-65.85c0-2.7,1.17-2.78,3.21-2.75Q989.8,194.58,1023.36,195Z" transform="translate(-328.29 -167.79)"/><path class="cls-3" d="M914.72,615.69c-4.46-2.89-8.86-5.94-14.09-7.37-12.28-3.35-24.37-3.76-35.78,2.77-6.62,3.8-10.78,9.92-13.87,16.78-1,2.21-2,4.42-2.82,6.68a2.72,2.72,0,0,1-2.83,1.92c-5.67.31-5.67.38-5.67-5.41V200c0-4.09,0-4,4-4.13,22.87-.52,45.74-1.3,68.63-1.33,2.45,0,2.92.63,2.92,2.94q-.07,207.78-.06,415.56A3.75,3.75,0,0,1,914.72,615.69Z" transform="translate(-328.29 -167.79)"/><path class="cls-4" d="M431.19,784.34l-42.6-10.71a3.55,3.55,0,0,1,2.44-1.87q44.07-15.32,88.9-28.23c29.4-8.47,59-16,88.85-22.85,23.81-5.49,47.78-10.14,71.81-14.52q8.07-1.47,16.13-2.94c9-1.62,16.83,4.73,16.69,13.85-.17,11.28-.73,22.56-.91,33.84,0,2.92-1,3.7-3.88,4.17q-30.54,4.9-60.79,11.36-55.62,11.87-110.17,28-51,15-101.07,32.8c-.88.31-2,1.44-2.77.26s.75-1.78,1.44-2.49c11.48-11.91,22.07-24.58,32.73-37.2C428.86,786.79,429.82,785.82,431.19,784.34Z" transform="translate(-328.29 -167.79)"/><path class="cls-5" d="M1414.84,784.45c13.28,14.06,26.16,28,39.72,41.34-5-.43-9.41-2.41-13.88-4-19.45-7-39.14-13.3-58.9-19.36q-40.23-12.35-81.1-22.38c-33-8.12-66.16-15.27-99.61-21.17q-11.79-2.08-23.63-4c-1.81-.28-2.22-1.18-2.17-2.79.42-11.9.67-23.82,1.23-35.72.4-8.47,8.92-14.67,17.49-13.16,44,7.78,87.73,16.94,131,28.25q65.51,17.13,129.29,39.85c.39.15.77.34,1.15.51.75.33,2,.21,2,1.18,0,1.34-1.42,1-2.2,1.19-12.43,3.14-24.87,6.21-37.31,9.3C1417.06,783.73,1416.2,784,1414.84,784.45Z" transform="translate(-328.29 -167.79)"/><path class="cls-6" d="M926.15,678.08c1.25-1.05,1.61-2.65,2.29-4,6.15-12.44,13.39-24.18,22.56-34.62,4.58-5.22,9.87-9.58,17-10.83a16.66,16.66,0,0,1,19.67,18.09c-.9,8.86-5.88,15.9-10.78,22.93a2.11,2.11,0,0,1-1.94.8c-3,0-6.08,0-9.84,0,1.45-1.87,2.58-3.28,3.66-4.73a36.52,36.52,0,0,0,6.7-13.84c.66-3,.2-5.71-2.24-7.76s-5.53-3.08-8.82-1.74c-6.88,2.81-11.29,8.38-15.35,14.19-5.58,8-9.66,16.79-13.76,25.59-1.13,2.43-.36,2.68,1.9,2.68q30.87-.1,61.75,0c11.73,0,17.4,6,17,17.74-.31,8.54-.62,17.08-.77,25.62,0,2.07-.62,2.66-2.72,2.66q-87.87-.09-175.73,0c-2.3,0-2.81-.68-2.7-2.86.46-9.58.73-19.18,1.13-28.76a15.18,15.18,0,0,1,12.43-14.06,30.21,30.21,0,0,1,5-.33c20.58,0,41.16,0,61.74,0,2.61,0,3.32-.4,2.21-3.06-4-9.64-7.88-19.34-13.88-28a34.84,34.84,0,0,0-10.2-10.25c-3.55-2.18-7.07-2.51-10.66,0s-4.06,6-3.18,9.83a35,35,0,0,0,5.72,12.59c1,1.35,2,2.67,3.29,4.5H877.47a2,2,0,0,1-1.79-1.08c-4.08-6.31-7.93-12.73-9-20.36-.91-6.68,1-12.39,6.42-16.54,5.7-4.39,12-5.44,18.74-2.44a33.83,33.83,0,0,1,12.61,10.35c8.57,10.82,15,22.9,20.43,35.54C925.23,676.63,925.27,677.55,926.15,678.08Z" transform="translate(-328.29 -167.79)"/><path class="cls-7" d="M945.3,801.89c.49-15.38,1-30.77,1.4-46.15,0-2.07.59-2.65,2.67-2.64q27.86.12,55.7,0c1.91,0,2.75.24,2.68,2.54-.87,26.55-1.54,53.11-2.41,79.67-.34,10.3-6,15.44-16.33,15.45-14.14,0-28.27,0-42.41.05-2.17,0-2.85-.48-2.77-2.78C944.41,832.67,944.83,817.28,945.3,801.89Z" transform="translate(-328.29 -167.79)"/><path class="cls-7" d="M899.35,801.64c-.47,15.5-1,31-1.35,46.51,0,2-.58,2.69-2.68,2.67-14.78-.09-29.56,0-44.34-.07-8,0-13.91-5.88-13.7-13.83.74-27.21,1.64-54.41,2.4-81.62.06-2,.9-2.17,2.5-2.16q28,0,56.05,0c2.1,0,2.64.5,2.56,2.66-.57,15.28-1,30.57-1.42,45.86Z" transform="translate(-328.29 -167.79)"/><path class="cls-8" d="M1072.06,700.73c-6.36.74-6.36.74-9-4.19a26.24,26.24,0,0,1-2.61-6.75c-.93-4.23.12-7.75,3.62-10.37a9.92,9.92,0,0,1,11.3-.89c3.34,1.77,5.76,4.57,7.93,7.59a106.73,106.73,0,0,1,10.62,19.21,129.23,129.23,0,0,1,10.17-17c2.51-3.42,5.16-6.69,8.79-9,4.48-2.85,9-2.76,12.65.19,3.28,2.68,4.16,6.59,2.4,11.53a26.13,26.13,0,0,1-2.57,5.42c-3.56,5.51-1.77,4.66-9,4.41,1.06-1.57,2.06-3,3-4.43a19.72,19.72,0,0,0,2.44-5.46c.51-1.9.33-3.57-1.19-4.91a4.67,4.67,0,0,0-5.57-.71c-3.41,1.71-5.83,4.5-8,7.54-3,4.25-5,9-7.35,13.61-1.09,2.18-.47,2.65,1.79,2.63,10.87-.09,21.74,0,32.61,0,8.23,0,11,2.91,10.67,11.12-.16,4.21-.36,8.43-.36,12.64,0,1.76-.48,2.5-2.32,2.36s-3.59,0-5.38,0q-45.75,0-91.49.06c-2.67,0-3.78-.39-3.47-3.41.43-4.18.3-8.42.46-12.64.26-7.06,3.36-10.07,10.5-10.09,11.08,0,22.16-.1,33.24,0,2.79,0,3-.78,2-3-2.41-5.37-4.44-10.94-8.08-15.67a16.67,16.67,0,0,0-5.88-5.18,4.85,4.85,0,0,0-5.33.62,4.48,4.48,0,0,0-1.74,4.76C1067.55,694.41,1069.51,697.51,1072.06,700.73Z" transform="translate(-328.29 -167.79)"/><path class="cls-8" d="M734.61,700.55c-6.19.79-6.31.76-8.82-4-1.47-2.81-2.74-5.69-2.8-9a10.08,10.08,0,0,1,14.08-9.49,18.43,18.43,0,0,1,7.32,5.88,86,86,0,0,1,11.94,21c1.32-.13,1.29-1.2,1.61-1.86a94,94,0,0,1,12.11-18.85,20.42,20.42,0,0,1,8.2-6.29,9.52,9.52,0,0,1,10.09,1.66c3,2.46,3.75,5.7,2.93,9.41A27.92,27.92,0,0,1,786,699.7c-1.75,2.33-4.3.71-7.12,1.35,2.34-3.27,4.43-6,5.44-9.29,1.06-3.45,0-5.92-3-6.85-1.82-.57-3.32.22-4.76,1.1a23.47,23.47,0,0,0-7.14,7.5,123.2,123.2,0,0,0-6.91,12.8c-1.07,2.15-.8,2.84,1.79,2.82,11-.12,22-.06,32.93,0,7.81,0,10.46,2.75,10.27,10.52-.11,4.43-.29,8.86-.28,13.29,0,1.81-.62,2.32-2.39,2.31q-49.08-.06-98.15,0c-1.64,0-2.19-.41-2.1-2.14.25-4.74.24-9.49.41-14.24.23-6.39,3.58-9.7,10-9.72,11.29-.05,22.58-.06,33.87.1,2.65,0,3.13-.61,2.06-3a121.3,121.3,0,0,0-6.17-12.79,21,21,0,0,0-7.52-7.94,4.83,4.83,0,0,0-5.88.47c-1.76,1.44-2.07,3.28-1.51,5.42A24.15,24.15,0,0,0,734.61,700.55Z" transform="translate(-328.29 -167.79)"/><path class="cls-6" d="M766.65,750.25c0-2.1,1.51-2.58,3.84-2.55,9.7.15,19.92.12,29.61,0,2.1,0,2.93.36,2.84,2.74-.57,14.74-1,29.48-1.43,44.23-.18,5.22-3.42,8.44-8.61,8.49-7.9.07-15.81-.06-23.72.07-2.21,0-2.56-.78-2.53-2.76.11-8.32.05-16.64.05-25C766.65,772.11,766.74,758.57,766.65,750.25Z" transform="translate(-328.29 -167.79)"/><path class="cls-9" d="M742.39,800.25c0,2.2-1.37,2.9-3.59,2.87-7.7-.14-16.23.1-23.93.07-5.54,0-8.72-3.17-8.57-8.67.4-14.65.93-29.29,1.32-43.94,0-2.09.53-2.91,2.84-2.88q14.56.21,29.12,0c2.56,0,2.85.84,2.81,3.09-.16,8.22-.07,16.44-.07,24.66C742.39,776.86,742.29,791.92,742.39,800.25Z" transform="translate(-328.29 -167.79)"/><path class="cls-9" d="M1079.68,800.54c0,2.25-.74,2.75-2.89,2.72-7.59-.13-16.83,0-24.42-.07-5.92,0-8.9-3.09-8.74-9.08.41-14.54.93-29.08,1.27-43.62,0-2.23.75-2.8,2.93-2.78q14.55.18,29.1,0c2.27,0,2.78.66,2.75,2.84-.14,8.21-.06,16.43-.06,24.65C1079.68,777,1079.58,792.12,1079.68,800.54Z" transform="translate(-328.29 -167.79)"/><path class="cls-9" d="M1103.92,750.65c0-2.1.65-3,3-2.94,9.8.13,21,.09,30.82,0,1.82,0,2.61.25,2.53,2.38-.54,14.63-.94,29.28-1.42,43.92-.2,6.24-3.27,9.15-9.56,9.16-7.49,0-15-.11-22.46.07-2.48,0-2.92-.75-2.87-3,.15-8.11.06-16.22.06-24.33C1103.92,774.34,1104,759.07,1103.92,750.65Z" transform="translate(-328.29 -167.79)"/><path class="cls-10" d="M1518.62,447.32c-.24-.05-.54-.07-.36-.44,0,0,.39.14.6.21Z" transform="translate(-328.29 -167.79)"/><path class="cls-11" d="M666.7,339.45c0-19.72,0-39.45-.05-59.17,0-2.31.41-3.2,3-3.36,11.79-.71,23.56-1.72,35.34-2.6a40.74,40.74,0,0,1,4.42-.05c11.12.44,15.8,4.89,16.92,16A151,151,0,0,1,727,305.7q0,30.84,0,61.7a76.57,76.57,0,0,1-1.1,13.85c-1.92,10.31-6.7,15-17.06,16.66-9.28,1.44-18.69,1.61-28,2.51-3.78.37-7.59.46-11.34,1-2.3.34-2.81-.24-2.8-2.5C666.74,379.11,666.7,359.28,666.7,339.45Z" transform="translate(-328.29 -167.79)"/><path d="M429.16,383.33c0-24.58,0-49.15-.05-73.73,0-2.14.45-3.25,2.72-3.57,11-1.54,22-3.19,33-4.77a30.38,30.38,0,0,1,9.13.09c7.65,1.19,9.87,6.83,10.94,13.78,1.12,7.23.62,14.5.63,21.76.05,29.74,0,59.49,0,89.23a48.69,48.69,0,0,1-2.09,15.16c-2.4,7.39-8.08,11.21-15.37,12.88-9,2.08-18.28,2.95-27.4,4.5-3.21.54-6.49.76-9.64,1.53-1.81.44-1.92-.11-1.9-1.55.05-3.59,0-7.17,0-10.76Z" transform="translate(-328.29 -167.79)"/></svg>